<mxfile host="app.diagrams.net" modified="2024-03-06T02:35:28.548Z" agent="Mozilla/5.0 (X11; Linux x86_64) AppleWebKit/537.36 (KHTML, like Gecko) Chrome/119.0.0.0 Safari/537.36" version="24.0.0" etag="x-lZOYmLLO9Q3DeRRNTA" type="github">
  <diagram name="第 1 页" id="vD-AmZjFXGDDAUmnvSfB">
    <mxGraphModel>
      <root>
        <mxCell id="0" />
        <mxCell id="1" parent="0" />
      </root>
    </mxGraphModel>
  </diagram>
</mxfile>
